<svg version="1.1" id="Layer_1" xmlns="http://www.w3.org/2000/svg" xmlns:xlink="http://www.w3.org/1999/xlink" x="0px" y="0px"
	 width="100%" viewBox="0 0 92 91" enable-background="new 0 0 92 91" xml:space="preserve">
<path fill="#FAFAFA" opacity="1.000000" stroke="none" 
	d="
M61.000000,92.000000 
	C40.666672,92.000000 20.833340,92.000000 1.000008,92.000000 
	C1.000005,61.666676 1.000005,31.333351 1.000003,1.000020 
	C31.666651,1.000013 62.333302,1.000013 92.999969,1.000007 
	C92.999977,31.333313 92.999977,61.666626 92.999985,91.999969 
	C82.500000,92.000000 72.000000,92.000000 61.000000,92.000000 
M57.592793,45.098892 
	C57.592793,45.098892 57.937901,45.066807 58.467773,45.121628 
	C58.644699,45.106583 58.821629,45.091537 59.521080,45.591591 
	C67.756241,44.708462 76.003387,43.915577 84.211197,42.826378 
	C85.221069,42.692368 86.917877,40.706406 86.721275,40.051464 
	C86.370323,38.882351 84.817612,38.073994 83.157944,36.781864 
	C80.436661,35.527363 77.715370,34.272861 75.041939,32.294174 
	C75.883835,31.081703 76.768250,29.896303 77.560417,28.652166 
	C81.400620,22.620960 78.470268,13.707320 71.391205,11.755081 
	C64.062622,8.066671 60.998352,8.515599 57.040222,14.058969 
	C59.395550,15.520501 61.741783,16.976391 64.825195,18.889717 
	C62.312134,22.150053 60.010345,25.136292 57.509602,28.380640 
	C58.477451,28.709459 59.211746,28.958933 60.098564,29.852751 
	C61.041714,31.138123 61.984863,32.423496 62.051800,33.907272 
	C59.372520,34.178997 56.693237,34.450722 53.954838,33.726177 
	C53.612572,29.625568 53.567890,25.471411 52.842442,21.439751 
	C52.148590,17.583717 51.207249,13.483353 45.372776,12.702050 
	C41.036400,10.392105 36.959732,10.627523 33.924168,12.983107 
	C36.829563,18.818480 39.583912,24.096703 42.102047,29.485308 
	C44.264297,34.112350 42.108543,36.654251 37.567894,37.641582 
	C29.056665,39.492290 20.466610,41.030640 12.049923,43.235558 
	C9.508693,43.901283 7.431520,46.338425 5.141779,47.964142 
	C6.416258,49.251606 7.690738,50.539070 9.463735,52.449245 
	C11.363418,52.433945 13.269737,52.515060 15.161508,52.384819 
	C20.332214,52.028835 25.496790,51.583782 30.277561,51.779587 
	C24.458792,59.574009 18.502052,67.273979 13.012036,75.293465 
	C12.390480,76.201393 13.901399,79.657669 15.311229,80.590332 
	C17.046499,81.738289 19.713436,81.477928 22.351524,82.367889 
	C24.649532,80.657089 26.990866,79.000717 29.231260,77.217522 
	C30.895180,75.893173 32.428139,74.404274 34.283382,73.621643 
	C35.602924,75.287544 36.604752,77.530380 38.321167,78.475616 
	C40.545151,79.700378 44.302044,81.203583 45.655136,80.210609 
	C47.555431,78.816055 48.087811,75.292747 48.742149,72.568649 
	C49.109840,71.037895 48.444084,69.284843 48.419357,67.629326 
	C48.320404,61.004585 49.056259,60.343086 55.541897,61.205460 
	C56.679863,61.356777 58.054577,61.472778 58.843449,62.155598 
	C60.716824,63.777138 62.304516,65.728729 64.007652,67.546959 
	C62.149925,68.839630 60.281719,70.117851 58.449245,71.445389 
	C58.246357,71.592377 58.247540,72.021042 58.158623,72.304588 
	C62.308563,74.955170 66.250725,78.003113 70.635536,80.144806 
	C76.655579,83.085220 82.578751,79.443161 83.340569,72.855751 
	C84.538086,62.500813 75.683060,54.176567 65.292946,55.751602 
	C61.224804,56.368286 57.102562,56.628109 52.918491,56.198559 
	C52.742920,51.885662 53.335239,47.874664 57.592793,45.098892 
M17.566410,25.732931 
	C20.171003,29.601339 21.790451,34.672592 27.976706,34.122013 
	C31.043114,33.849102 33.269241,31.844664 31.728668,29.312624 
	C29.021780,24.863661 25.219185,21.081358 21.875483,17.019852 
	C21.278814,17.245729 20.682148,17.471605 20.085482,17.697483 
	C19.130194,20.151955 18.174908,22.606426 17.566410,25.732931 
z"/>
<path fill="#080808" opacity="1.000000" stroke="none" 
	d="
M53.004959,57.050461 
	C57.102562,56.628109 61.224804,56.368286 65.292946,55.751602 
	C75.683060,54.176567 84.538086,62.500813 83.340569,72.855751 
	C82.578751,79.443161 76.655579,83.085220 70.635536,80.144806 
	C66.250725,78.003113 62.308563,74.955170 58.158623,72.304588 
	C58.247540,72.021042 58.246357,71.592377 58.449245,71.445389 
	C60.281719,70.117851 62.149925,68.839630 64.007652,67.546951 
	C62.304516,65.728729 60.716824,63.777138 58.843449,62.155598 
	C58.054577,61.472778 56.679863,61.356777 55.541897,61.205460 
	C49.056259,60.343086 48.320404,61.004585 48.419357,67.629326 
	C48.444084,69.284843 49.109840,71.037895 48.742149,72.568649 
	C48.087811,75.292747 47.555431,78.816055 45.655136,80.210609 
	C44.302044,81.203583 40.545151,79.700378 38.321167,78.475616 
	C36.604752,77.530380 35.602924,75.287544 34.221497,72.921257 
	C33.949627,67.561371 36.443554,64.182289 40.193535,62.284103 
	C44.067875,60.322968 44.274582,57.770264 43.251534,53.636978 
	C42.381508,54.643593 41.855778,55.181480 41.409531,55.778755 
	C34.926006,64.456581 28.453127,73.142365 21.977703,81.826248 
	C19.713436,81.477928 17.046499,81.738289 15.311229,80.590332 
	C13.901399,79.657669 12.390480,76.201393 13.012036,75.293465 
	C18.502052,67.273979 24.458792,59.574009 30.787991,51.368893 
	C31.823856,50.561298 32.349293,50.164398 32.874729,49.767498 
	C32.722454,49.209240 32.570175,48.650978 32.417900,48.092716 
	C24.600338,49.337322 16.782778,50.581928 8.965217,51.826534 
	C7.690738,50.539070 6.416258,49.251606 5.141778,47.964142 
	C7.431520,46.338425 9.508693,43.901283 12.049923,43.235558 
	C20.466610,41.030640 29.056665,39.492290 37.567894,37.641582 
	C42.108543,36.654251 44.264297,34.112350 42.102047,29.485308 
	C39.583912,24.096703 36.829563,18.818480 33.924168,12.983107 
	C36.959732,10.627523 41.036400,10.392105 45.877892,13.146271 
	C52.204460,19.696527 50.345985,27.233721 50.249260,34.916313 
	C51.530529,34.850334 52.772243,34.786388 54.013958,34.722446 
	C56.693237,34.450722 59.372520,34.178997 62.925507,33.904411 
	C67.530838,33.607151 71.262466,33.312756 74.994087,33.018360 
	C77.715370,34.272861 80.436661,35.527363 83.567795,37.387955 
	C85.095551,40.737209 83.415840,40.889671 81.345871,41.066387 
	C73.904007,41.701706 66.473427,42.469196 58.747124,43.052818 
	C59.445633,42.087025 60.435600,41.255150 61.425564,40.423275 
	C58.391846,40.579746 54.510273,41.054848 53.506985,43.008259 
	C51.484711,46.945625 51.009182,51.683186 50.057560,56.125347 
	C50.037506,56.218952 51.978703,56.732708 53.004959,57.050461 
M38.203781,67.612526 
	C38.150002,68.944183 37.778404,70.389900 38.195644,71.552521 
	C38.367496,72.031403 41.053566,72.293449 41.201118,71.985573 
	C42.245403,69.806656 42.927319,67.454056 43.724789,65.156845 
	C43.316418,64.894814 42.908051,64.632782 42.499680,64.370750 
	C41.240501,65.250076 39.981319,66.129410 38.203781,67.612526 
z"/>
<path fill="#0B0B0B" opacity="1.000000" stroke="none" 
	d="
M59.946041,29.208405 
	C59.211746,28.958933 58.477451,28.709459 57.509602,28.380640 
	C60.010345,25.136292 62.312134,22.150053 64.825195,18.889717 
	C61.741783,16.976391 59.395550,15.520501 57.040222,14.058969 
	C60.998352,8.515599 64.062622,8.066671 71.897850,12.166449 
	C73.304428,13.743080 74.524208,14.781683 75.045113,16.097048 
	C76.693146,20.258572 76.983658,24.497066 74.002464,28.238251 
	C71.199234,31.756102 67.635490,31.811394 63.749420,30.060698 
	C62.589127,29.537981 61.219666,29.479553 59.946041,29.208405 
z"/>
<path fill="#0B0B0B" opacity="1.000000" stroke="none" 
	d="
M17.393015,25.396915 
	C18.174908,22.606426 19.130194,20.151955 20.085482,17.697483 
	C20.682148,17.471605 21.278814,17.245729 21.875483,17.019852 
	C25.219185,21.081358 29.021780,24.863661 31.728668,29.312624 
	C33.269241,31.844664 31.043114,33.849102 27.976706,34.122013 
	C21.790451,34.672592 20.171003,29.601339 17.393015,25.396915 
z"/>
<path fill="#C9C9C9" opacity="1.000000" stroke="none" 
	d="
M60.022301,29.530579 
	C61.219666,29.479553 62.589127,29.537981 63.749420,30.060698 
	C67.635490,31.811394 71.199234,31.756102 74.002464,28.238251 
	C76.983658,24.497066 76.693146,20.258572 75.045113,16.097048 
	C74.524208,14.781683 73.304428,13.743080 72.246918,12.265476 
	C78.470268,13.707320 81.400620,22.620960 77.560417,28.652166 
	C76.768250,29.896303 75.883835,31.081703 75.018013,32.656265 
	C71.262466,33.312756 67.530838,33.607151 63.363613,33.805210 
	C61.984863,32.423496 61.041714,31.138123 60.022301,29.530579 
z"/>
<path fill="#A7A7A7" opacity="1.000000" stroke="none" 
	d="
M22.164616,82.097069 
	C28.453127,73.142365 34.926006,64.456581 41.409531,55.778755 
	C41.855778,55.181480 42.381508,54.643593 43.251534,53.636978 
	C44.274582,57.770264 44.067875,60.322968 40.193535,62.284103 
	C36.443554,64.182289 33.949627,67.561371 34.089516,72.604767 
	C32.428139,74.404274 30.895180,75.893173 29.231260,77.217522 
	C26.990866,79.000717 24.649532,80.657089 22.164616,82.097069 
z"/>
<path fill="#D9D9D9" opacity="1.000000" stroke="none" 
	d="
M59.038582,43.186737 
	C66.473427,42.469196 73.904007,41.701706 81.345871,41.066387 
	C83.415840,40.889671 85.095551,40.737209 83.872513,37.554420 
	C84.817612,38.073994 86.370323,38.882351 86.721275,40.051464 
	C86.917877,40.706406 85.221069,42.692368 84.211197,42.826378 
	C76.003387,43.915577 67.756241,44.708462 59.278809,45.018967 
	C59.037224,44.026478 59.037903,43.606606 59.038582,43.186737 
z"/>
<path fill="#C2C2C2" opacity="1.000000" stroke="none" 
	d="
M53.984398,34.224312 
	C52.772243,34.786388 51.530529,34.850334 50.249260,34.916313 
	C50.345985,27.233721 52.204460,19.696527 46.235237,13.271147 
	C51.207249,13.483353 52.148590,17.583717 52.842442,21.439751 
	C53.567890,25.471411 53.612572,29.625568 53.984398,34.224312 
z"/>
<path fill="#B4B4B4" opacity="1.000000" stroke="none" 
	d="
M58.747124,43.052818 
	C59.037903,43.606606 59.037224,44.026478 59.017551,44.761417 
	C58.821629,45.091537 58.644699,45.106583 58.136528,44.911247 
	C57.621475,44.857716 57.437672,45.014568 57.253868,45.171417 
	C53.335239,47.874664 52.742920,51.885662 52.961723,56.624512 
	C51.978703,56.732708 50.037506,56.218952 50.057560,56.125347 
	C51.009182,51.683186 51.484711,46.945625 53.506985,43.008259 
	C54.510273,41.054848 58.391846,40.579746 61.425564,40.423275 
	C60.435600,41.255150 59.445633,42.087025 58.747124,43.052818 
z"/>
<path fill="#C5C5C5" opacity="1.000000" stroke="none" 
	d="
M9.214476,52.137890 
	C16.782778,50.581928 24.600338,49.337322 32.417900,48.092716 
	C32.570175,48.650978 32.722454,49.209240 32.874729,49.767498 
	C32.349293,50.164398 31.823856,50.561298 30.981106,51.066101 
	C25.496790,51.583782 20.332214,52.028835 15.161508,52.384819 
	C13.269737,52.515060 11.363418,52.433945 9.214476,52.137890 
z"/>
<path fill="#D9D9D9" opacity="1.000000" stroke="none" 
	d="
M57.423328,45.135155 
	C57.437672,45.014568 57.621475,44.857716 57.871590,44.883835 
	C57.937901,45.066807 57.592793,45.098892 57.423328,45.135155 
z"/>
<path fill="#C1C1C1" opacity="1.000000" stroke="none" 
	d="
M38.462959,67.310631 
	C39.981319,66.129410 41.240501,65.250076 42.499680,64.370750 
	C42.908051,64.632782 43.316418,64.894814 43.724789,65.156845 
	C42.927319,67.454056 42.245403,69.806656 41.201118,71.985573 
	C41.053566,72.293449 38.367496,72.031403 38.195644,71.552521 
	C37.778404,70.389900 38.150002,68.944183 38.462959,67.310631 
z"/>
</svg>